<?xml version="1.0" encoding="UTF-8" standalone="no"?>
<!DOCTYPE svg PUBLIC "-//W3C//DTD SVG 1.1//EN" "http://www.w3.org/Graphics/SVG/1.1/DTD/svg11.dtd">
<svg version="1.1" xmlns="http://www.w3.org/2000/svg" xmlns:xlink="http://www.w3.org/1999/xlink" preserveAspectRatio="xMidYMid meet" viewBox="0 0 540 640" width="540" height="640"><defs><path d="M468.41 262.68L437.12 278.33L437.12 309.62L468.41 325.27L499.71 309.62L499.71 278.33L468.41 262.68Z" id="ajpv52LBT"></path><path d="M504.92 316.57L472.47 332.8L472.47 365.25L504.92 381.48L537.38 365.25L537.38 332.8L504.92 316.57Z" id="a2OeqHVhFY"></path><path d="M432.56 316.57L400.11 332.8L400.11 365.25L432.56 381.48L465.02 365.25L465.02 332.8L432.56 316.57Z" id="nVomAafTw"></path><path d="M468.41 371.86L435.96 388.08L435.96 420.54L468.41 436.76L500.87 420.54L500.87 388.08L468.41 371.86Z" id="c4Op3XfaCI"></path><path d="M504.92 428.19L472.47 444.41L472.47 476.86L504.92 493.09L537.38 476.86L537.38 444.41L504.92 428.19Z" id="aaSTaFN9u"></path><path d="M432.56 428.19L400.11 444.41L400.11 476.86L432.56 493.09L465.02 476.86L465.02 444.41L432.56 428.19Z" id="a33JZ9WnX4"></path><path d="M468.41 484.63L435.96 500.85L435.96 533.31L468.41 549.53L500.87 533.31L500.87 500.85L468.41 484.63Z" id="a3gR66osaQ"></path><path d="M504.92 208.32L472.47 224.55L472.47 257L504.92 273.23L537.38 257L537.38 224.55L504.92 208.32Z" id="a1FFIgJmjv"></path><path d="M432.56 208.32L400.11 224.55L400.11 257L432.56 273.23L465.02 257L465.02 224.55L432.56 208.32Z" id="d4JkOILfyn"></path><path d="M468.41 153.5L435.96 169.73L435.96 202.18L468.41 218.4L500.87 202.18L500.87 169.73L468.41 153.5Z" id="a1BrmL3oL"></path><path d="M359.43 317.5L328.13 333.15L328.13 364.44L359.43 380.09L390.72 364.44L390.72 333.15L359.43 317.5Z" id="c2R0eOoFcX"></path><path d="M395.94 371.39L363.48 387.62L363.48 420.07L395.94 436.3L428.39 420.07L428.39 387.62L395.94 371.39Z" id="chscOnE1Q"></path><path d="M323.58 371.39L291.13 387.62L291.13 420.07L323.58 436.3L356.03 420.07L356.03 387.62L323.58 371.39Z" id="a2ocFHsD0c"></path><path d="M359.43 426.68L326.98 442.9L326.98 475.36L359.43 491.58L391.88 475.36L391.88 442.9L359.43 426.68Z" id="i2nSizAq8L"></path><path d="M395.94 483.01L363.48 499.23L363.48 531.68L395.94 547.91L428.39 531.68L428.39 499.23L395.94 483.01Z" id="b2enIr05K3"></path><path d="M323.58 483.01L291.13 499.23L291.13 531.68L323.58 547.91L356.03 531.68L356.03 499.23L323.58 483.01Z" id="b36ndvXTPa"></path><path d="M395.94 263.14L363.48 279.37L363.48 311.82L395.94 328.05L428.39 311.82L428.39 279.37L395.94 263.14Z" id="aRGEc0k3"></path><path d="M323.58 263.14L291.13 279.37L291.13 311.82L323.58 328.05L356.03 311.82L356.03 279.37L323.58 263.14Z" id="a7kwCJNbU0"></path><path d="M359.43 208.32L326.98 224.55L326.98 257L359.43 273.23L391.88 257L391.88 224.55L359.43 208.32Z" id="bzcbgKDmQ"></path><path d="M395.94 153.5L363.48 169.73L363.48 202.18L395.94 218.4L428.39 202.18L428.39 169.73L395.94 153.5Z" id="c4t9ResPpN"></path><path d="M323.58 153.5L291.13 169.73L291.13 202.18L323.58 218.4L356.03 202.18L356.03 169.73L323.58 153.5Z" id="h2mNbVdk3Y"></path><path d="M432.56 97.59L400.11 113.82L400.11 146.27L432.56 162.5L465.02 146.27L465.02 113.82L432.56 97.59Z" id="h3M7ds9ciU"></path><path d="M432.56 540.17L400.11 556.39L400.11 588.85L432.56 605.07L465.02 588.85L465.02 556.39L432.56 540.17Z" id="b2BMAFEoKx"></path></defs><g><g><g><g><use xlink:href="#ajpv52LBT" opacity="1" fill-opacity="0" stroke="#ff0000" stroke-width="1" stroke-opacity="1"></use></g></g><g><g><use xlink:href="#a2OeqHVhFY" opacity="1" fill-opacity="0" stroke="#ff0000" stroke-width="1" stroke-opacity="1"></use></g></g><g><g><use xlink:href="#nVomAafTw" opacity="1" fill-opacity="0" stroke="#ff0000" stroke-width="1" stroke-opacity="1"></use></g></g><g><g><use xlink:href="#c4Op3XfaCI" opacity="1" fill-opacity="0" stroke="#ff0000" stroke-width="1" stroke-opacity="1"></use></g></g><g><g><use xlink:href="#aaSTaFN9u" opacity="1" fill-opacity="0" stroke="#ff0000" stroke-width="1" stroke-opacity="1"></use></g></g><g><g><use xlink:href="#a33JZ9WnX4" opacity="1" fill-opacity="0" stroke="#ff0000" stroke-width="1" stroke-opacity="1"></use></g></g><g><g><use xlink:href="#a3gR66osaQ" opacity="1" fill-opacity="0" stroke="#ff0000" stroke-width="1" stroke-opacity="1"></use></g></g><g><g><use xlink:href="#a1FFIgJmjv" opacity="1" fill-opacity="0" stroke="#ff0000" stroke-width="1" stroke-opacity="1"></use></g></g><g><g><use xlink:href="#d4JkOILfyn" opacity="1" fill-opacity="0" stroke="#ff0000" stroke-width="1" stroke-opacity="1"></use></g></g><g><g><use xlink:href="#a1BrmL3oL" opacity="1" fill-opacity="0" stroke="#ff0000" stroke-width="1" stroke-opacity="1"></use></g></g><g><g><use xlink:href="#c2R0eOoFcX" opacity="1" fill-opacity="0" stroke="#ff0000" stroke-width="1" stroke-opacity="1"></use></g></g><g><g><use xlink:href="#chscOnE1Q" opacity="1" fill-opacity="0" stroke="#ff0000" stroke-width="1" stroke-opacity="1"></use></g></g><g><g><use xlink:href="#a2ocFHsD0c" opacity="1" fill-opacity="0" stroke="#ff0000" stroke-width="1" stroke-opacity="1"></use></g></g><g><g><use xlink:href="#i2nSizAq8L" opacity="1" fill-opacity="0" stroke="#ff0000" stroke-width="1" stroke-opacity="1"></use></g></g><g><g><use xlink:href="#b2enIr05K3" opacity="1" fill-opacity="0" stroke="#ff0000" stroke-width="1" stroke-opacity="1"></use></g></g><g><g><use xlink:href="#b36ndvXTPa" opacity="1" fill-opacity="0" stroke="#ff0000" stroke-width="1" stroke-opacity="1"></use></g></g><g><g><use xlink:href="#aRGEc0k3" opacity="1" fill-opacity="0" stroke="#ff0000" stroke-width="1" stroke-opacity="1"></use></g></g><g><g><use xlink:href="#a7kwCJNbU0" opacity="1" fill-opacity="0" stroke="#ff0000" stroke-width="1" stroke-opacity="1"></use></g></g><g><g><use xlink:href="#bzcbgKDmQ" opacity="1" fill-opacity="0" stroke="#ff0000" stroke-width="1" stroke-opacity="1"></use></g></g><g><g><use xlink:href="#c4t9ResPpN" opacity="1" fill-opacity="0" stroke="#ff0000" stroke-width="1" stroke-opacity="1"></use></g></g><g><g><use xlink:href="#h2mNbVdk3Y" opacity="1" fill-opacity="0" stroke="#ff0000" stroke-width="1" stroke-opacity="1"></use></g></g><g><g><use xlink:href="#h3M7ds9ciU" opacity="1" fill-opacity="0" stroke="#ff0000" stroke-width="1" stroke-opacity="1"></use></g></g><g><g><use xlink:href="#b2BMAFEoKx" opacity="1" fill-opacity="0" stroke="#ff0000" stroke-width="1" stroke-opacity="1"></use></g></g></g></g></svg>